name rise49.25peak52.1432fall72.8391.mot
datacolumns 19
datarows 35
range 9.12663300000000 9.18329900000000
endheader
time	ground_force1_vx	ground_force1_vy	ground_force1_vz	ground_force1_px	ground_force1_py	ground_force1_pz	ground_force2_vx	ground_force2_vy	ground_force2_vz	ground_force2_px	ground_force2_py	ground_force2_pz	ground_torque1_x	ground_torque1_y	ground_torque1_z	ground_torque2_x	ground_torque2_y	ground_torque2_z	
9.12663300000000	-50.08891200000000	758.16712399999994	50.72203600000000	0.10686700000000	0.00000000000000	0.14047000000000	-6.63199400000000	47.70921700000000	7.61516800000000	0.32962900000000	0.00000000000000	-0.07227300000000	0.00000000000000	24.28949300000000	0.00000000000000	0.00000000000000	4.61324400000000	0.00000000000000	
9.12829600000000	-50.84975000000000	756.66980400000000	50.45303500000000	0.10611900000000	0.00000000000000	0.14029800000000	-7.05614500000000	54.58153400000000	8.36829000000000	0.33472200000000	0.00000000000000	-0.07266900000000	0.00000000000000	24.34997400000000	0.00000000000000	0.00000000000000	5.15851400000000	0.00000000000000	
9.12996000000000	-51.62307600000000	755.10658599999999	50.17462400000000	0.10537500000000	0.00000000000000	0.14012400000000	-7.34008600000000	61.39270000000000	9.02361200000000	0.33932400000000	0.00000000000000	-0.07304300000000	0.00000000000000	24.41254200000000	0.00000000000000	0.00000000000000	5.65832400000000	0.00000000000000	
9.13163400000000	-52.40858500000000	753.47416399999997	49.88673400000000	0.10463500000000	0.00000000000000	0.13994900000000	-7.47495700000000	68.07261200000001	9.56938000000000	0.34349900000000	0.00000000000000	-0.07340000000000	0.00000000000000	24.47709300000000	0.00000000000000	0.00000000000000	6.10355000000000	0.00000000000000	
9.13330100000000	-53.20590800000000	751.76916800000004	49.58929800000000	0.10389900000000	0.00000000000000	0.13977100000000	-7.45883300000000	74.57685600000001	10.00002100000000	0.34730100000000	0.00000000000000	-0.07374200000000	0.00000000000000	24.54351000000000	0.00000000000000	0.00000000000000	6.48870300000000	0.00000000000000	
9.13496200000000	-54.01461800000000	749.98816999999997	49.28224600000000	0.10316700000000	0.00000000000000	0.13959200000000	-7.29601400000000	80.88625300000000	10.31569400000000	0.35077500000000	0.00000000000000	-0.07407100000000	0.00000000000000	24.61166000000000	0.00000000000000	0.00000000000000	6.81179200000000	0.00000000000000	
9.13662700000000	-54.83422100000000	748.12768800000003	48.96551000000000	0.10243800000000	0.00000000000000	0.13941000000000	-6.99591900000000	87.00439799999999	10.52143600000000	0.35396000000000	0.00000000000000	-0.07438800000000	0.00000000000000	24.68139800000000	0.00000000000000	0.00000000000000	7.07392000000000	0.00000000000000	
9.13829800000000	-55.66415900000000	746.18419700000004	48.63902500000000	0.10171200000000	0.00000000000000	0.13922800000000	-6.57175400000000	92.95374600000000	10.62605700000000	0.35688600000000	0.00000000000000	-0.07469600000000	0.00000000000000	24.75256100000000	0.00000000000000	0.00000000000000	7.27869000000000	0.00000000000000	
9.13996400000000	-56.50380700000000	744.15413599999999	48.30272700000000	0.10098900000000	0.00000000000000	0.13904400000000	-6.03908400000000	98.77082900000001	10.64091900000000	0.35958100000000	0.00000000000000	-0.07499400000000	0.00000000000000	24.82497300000000	0.00000000000000	0.00000000000000	7.43151400000000	0.00000000000000	
9.14163100000000	-57.35246800000000	742.03391599999998	47.95655400000000	0.10026800000000	0.00000000000000	0.13885800000000	-5.41447100000000	104.50114600000001	10.57871000000000	0.36206800000000	0.00000000000000	-0.07528400000000	0.00000000000000	24.89844300000000	0.00000000000000	0.00000000000000	7.53889000000000	0.00000000000000	
9.14329500000000	-58.20937800000000	739.81993100000000	47.60045000000000	0.09955000000000	0.00000000000000	0.13867200000000	-4.71425100000000	110.19420000000000	10.45232700000000	0.36436900000000	0.00000000000000	-0.07556700000000	0.00000000000000	24.97276500000000	0.00000000000000	0.00000000000000	7.60772100000000	0.00000000000000	
9.14496600000000	-59.07370100000000	737.50856299999998	47.23436100000000	0.09883300000000	0.00000000000000	0.13848400000000	-3.95353400000000	115.89905500000000	10.27393200000000	0.36650000000000	0.00000000000000	-0.07584400000000	0.00000000000000	25.04771700000000	0.00000000000000	0.00000000000000	7.64471300000000	0.00000000000000	
9.14663400000000	-59.94452800000000	735.09619599999996	46.85824000000000	0.09811800000000	0.00000000000000	0.13829400000000	-3.14547300000000	121.66066400000000	10.05422100000000	0.36847700000000	0.00000000000000	-0.07611500000000	0.00000000000000	25.12306400000000	0.00000000000000	0.00000000000000	7.65590100000000	0.00000000000000	
9.14829500000000	-60.82087900000000	732.57922399999995	46.47204600000000	0.09740500000000	0.00000000000000	0.13810400000000	-2.30080100000000	127.51713500000000	9.80193700000000	0.37031300000000	0.00000000000000	-0.07638000000000	0.00000000000000	25.19855500000000	0.00000000000000	0.00000000000000	7.64630900000000	0.00000000000000	
9.14996100000000	-61.70170200000000	729.95406300000002	46.07574400000000	0.09669300000000	0.00000000000000	0.13791300000000	-1.42763300000000	133.49795700000001	9.52361100000000	0.37202000000000	0.00000000000000	-0.07664000000000	0.00000000000000	25.27392400000000	0.00000000000000	0.00000000000000	7.61974800000000	0.00000000000000	
9.15163500000000	-62.58587200000000	727.21715900000004	45.66930700000000	0.09598200000000	0.00000000000000	0.13772100000000	-0.53148800000000	139.62316400000000	9.22351400000000	0.37360800000000	0.00000000000000	-0.07689500000000	0.00000000000000	25.34889100000000	0.00000000000000	0.00000000000000	7.57874300000000	0.00000000000000	
9.15329800000000	-63.47219400000000	724.36500200000000	45.25271900000000	0.09527300000000	0.00000000000000	0.13752900000000	0.38449300000000	145.90332500000000	8.90378900000000	0.37508700000000	0.00000000000000	-0.07714600000000	0.00000000000000	25.42316300000000	0.00000000000000	0.00000000000000	7.52457800000000	0.00000000000000	
9.15496200000000	-64.35940100000001	721.39413500000001	44.82597100000000	0.09456300000000	0.00000000000000	0.13733500000000	1.31919600000000	152.34020799999999	8.56471400000000	0.37646500000000	0.00000000000000	-0.07739300000000	0.00000000000000	25.49643200000000	0.00000000000000	0.00000000000000	7.45742200000000	0.00000000000000	
9.15663200000000	-65.24615799999999	718.30116699999996	44.38906700000000	0.09385500000000	0.00000000000000	0.13714100000000	2.27310600000000	158.92795200000000	8.20505800000000	0.37774900000000	0.00000000000000	-0.07763600000000	0.00000000000000	25.56837800000000	0.00000000000000	0.00000000000000	7.37651900000000	0.00000000000000	
9.15829400000000	-66.13105899999999	715.08278499999994	43.94201900000000	0.09314700000000	0.00000000000000	0.13694700000000	3.24782900000000	165.65455499999999	7.82248200000000	0.37894500000000	0.00000000000000	-0.07787600000000	0.00000000000000	25.63866400000000	0.00000000000000	0.00000000000000	7.28042300000000	0.00000000000000	
9.15996800000000	-67.01263600000000	711.73576400000002	43.48485400000000	0.09243900000000	0.00000000000000	0.13675200000000	4.24563200000000	172.50352100000001	7.41395500000000	0.38005900000000	0.00000000000000	-0.07811100000000	0.00000000000000	25.70694700000000	0.00000000000000	0.00000000000000	7.16723100000000	0.00000000000000	
9.16162800000000	-67.88935300000000	708.25698000000000	43.01761100000000	0.09173100000000	0.00000000000000	0.13655700000000	5.26901300000000	179.45550700000001	6.97613700000000	0.38109700000000	0.00000000000000	-0.07834400000000	0.00000000000000	25.77286600000000	0.00000000000000	0.00000000000000	7.03482200000000	0.00000000000000	
9.16329300000000	-68.75961500000000	704.64342299999998	42.54034400000000	0.09102400000000	0.00000000000000	0.13636100000000	6.32034000000000	186.48985500000001	6.50572400000000	0.38206100000000	0.00000000000000	-0.07857200000000	0.00000000000000	25.83605200000000	0.00000000000000	0.00000000000000	6.88106400000000	0.00000000000000	
9.16496300000000	-69.62176700000001	700.89220699999998	42.05312100000000	0.09031600000000	0.00000000000000	0.13616500000000	7.40156300000000	193.58591799999999	5.99972500000000	0.38295700000000	0.00000000000000	-0.07879800000000	0.00000000000000	25.89612600000000	0.00000000000000	0.00000000000000	6.70398500000000	0.00000000000000	
9.16662600000000	-70.47409900000000	697.00058100000001	41.55602200000000	0.08960700000000	0.00000000000000	0.13596900000000	8.51401600000000	200.72412000000000	5.45566700000000	0.38378800000000	0.00000000000000	-0.07902100000000	0.00000000000000	25.95269600000000	0.00000000000000	0.00000000000000	6.50191300000000	0.00000000000000	
9.16829900000000	-71.31484800000000	692.96594200000004	41.04914800000000	0.08889900000000	0.00000000000000	0.13577300000000	9.65829700000000	207.88672800000001	4.87173300000000	0.38455700000000	0.00000000000000	-0.07924000000000	0.00000000000000	26.00536400000000	0.00000000000000	0.00000000000000	6.27355900000000	0.00000000000000	
9.16996500000000	-72.14220600000000	688.78584699999999	40.53261300000000	0.08818900000000	0.00000000000000	0.13557700000000	10.83422500000000	215.05834400000001	4.24682300000000	0.38526700000000	0.00000000000000	-0.07945700000000	0.00000000000000	26.05372400000000	0.00000000000000	0.00000000000000	6.01807100000000	0.00000000000000	
9.17163000000000	-72.95431700000000	684.45802100000003	40.00654800000000	0.08747900000000	0.00000000000000	0.13538100000000	12.04086400000000	222.22612599999999	3.58055800000000	0.38591900000000	0.00000000000000	-0.07967100000000	0.00000000000000	26.09736100000000	0.00000000000000	0.00000000000000	5.73504200000000	0.00000000000000	
9.17329300000000	-73.74928800000001	679.98037099999999	39.47110300000000	0.08676800000000	0.00000000000000	0.13518500000000	13.27659500000000	229.37978100000001	2.87324300000000	0.38651700000000	0.00000000000000	-0.07988100000000	0.00000000000000	26.13585500000000	0.00000000000000	0.00000000000000	5.42449300000000	0.00000000000000	
9.17496500000000	-74.52519200000000	675.35099200000002	38.92644500000000	0.08605500000000	0.00000000000000	0.13498900000000	14.53922400000000	236.51138800000001	2.12578300000000	0.38706200000000	0.00000000000000	-0.08008900000000	0.00000000000000	26.16878200000000	0.00000000000000	0.00000000000000	5.08683000000000	0.00000000000000	
9.17663400000000	-75.28007200000000	670.56818199999998	38.37275600000000	0.08534100000000	0.00000000000000	0.13479400000000	15.82610800000000	243.61507900000001	1.33958200000000	0.38755500000000	0.00000000000000	-0.08029400000000	0.00000000000000	26.19571400000000	0.00000000000000	0.00000000000000	4.72278800000000	0.00000000000000	
9.17829300000000	-76.01194599999999	665.63044900000000	37.81024200000000	0.08462600000000	0.00000000000000	0.13459800000000	17.13429500000000	250.68666099999999	0.51643000000000	0.38799900000000	0.00000000000000	-0.08049600000000	0.00000000000000	26.21622100000000	0.00000000000000	0.00000000000000	4.33336100000000	0.00000000000000	
9.17996000000000	-76.71881700000000	660.53652099999999	37.23912200000000	0.08390800000000	0.00000000000000	0.13440400000000	18.46064900000000	257.72318999999999	-0.34160900000000	0.38839300000000	0.00000000000000	-0.08069500000000	0.00000000000000	26.22987000000000	0.00000000000000	0.00000000000000	3.91974200000000	0.00000000000000	
9.18163200000000	-77.39867400000000	655.28535599999998	36.65963700000000	0.08318900000000	0.00000000000000	0.13421000000000	19.80197500000000	264.72256900000002	-1.23230300000000	0.38873900000000	0.00000000000000	-0.08089100000000	0.00000000000000	26.23623300000000	0.00000000000000	0.00000000000000	3.48325100000000	0.00000000000000	
9.18329900000000	-78.04949900000000	649.87615000000005	36.07204500000000	0.08246700000000	0.00000000000000	0.13401600000000	21.15511400000000	271.68317500000001	-2.15334400000000	0.38903900000000	0.00000000000000	-0.08108500000000	0.00000000000000	26.23487900000000	0.00000000000000	0.00000000000000	3.02528300000000	0.00000000000000	
